# xmcd CD database file
#
# Track frame offsets:
#	150
#	75355
#	109065
#	139140
#	163567
#	200510
#	231115
#	278002
#	312587
#
# Disc length: 4565 seconds
#
# Revision: 0
# Processed by: cddbd v1.5.2PL0 Copyright (c) Steve Scherf et al.
# Submitted via: CDex 1.70beta2
#
DISCID=7311d309
DTITLE=Pedro Iturralde Quartet - Etnofonias
DYEAR=1999
DGENRE=Jazz
TTITLE0=SUITE HELLENIQUE
TTITLE1=EL CANT DELS OCELLS
TTITLE2=VAQUEIRAS-ASTURIANIMSO
TTITLE3=SOLIDAO
TTITLE4=MILONGA DEL ANGEL
TTITLE5=NANA-FUEGO FATUO
TTITLE6=RECORDANDO A TURINA
TTITLE7=BALADA GALAICA
TTITLE8=NEGRA SOMBRA
EXTD=YEAR: 1999
EXTT0=
EXTT1=
EXTT2=
EXTT3=
EXTT4=
EXTT5=
EXTT6=
EXTT7=
EXTT8=
PLAYORDER=
